<svg width="260" height="260" viewBox="0 0 260 260" fill="none" xmlns="http://www.w3.org/2000/svg"><circle cx="130" cy="130" r="130" fill="url(#paint0_linear_7575_8467)"/><path d="M155.648 186.841l-26.341-24.955-23.568 24.955h49.909z" fill="#000" stroke="#000" stroke-width="2.773" stroke-linejoin="round"/><path d="M186.148 186.841L72.466 73.159v113.682m113.682 0L87.716 73.159l-15.25 113.682m113.682 0L101.58 73.159 72.466 186.841m113.682 0L116.83 73.159 72.466 186.841m113.682 0L130.693 73.159 72.466 186.841m113.682 0L144.557 73.159 72.466 186.841m113.682 0L159.807 73.159 72.466 186.841m113.682 0L173.67 73.159 72.466 186.841m113.682 0l1.386-113.682L72.466 186.841" stroke="#000" stroke-width="2.773" stroke-linejoin="round"/><defs><linearGradient id="paint0_linear_7575_8467" x1="130" x2="130" y2="260" gradientUnits="userSpaceOnUse"><stop stop-color="#0BC4FF"/><stop offset="1" stop-color="#BFFF0B"/></linearGradient></defs></svg>
